UFC 112 Invincible [SatRiP-XviD-Mp3-ENG][TNTVillage.Scambioetico]



General
Complete name                    : C:UFC.112.Invincible.DSR.XviD-XWT.avi
Format                           : AVI
Format/Info                      : Audio Video Interleave
File size                        : 1.41 GiB
Duration                         : 2h 53mn
Overall bit rate                 : 1 164 Kbps

Video
Format                           : MPEG-4 Visual
Format profile                   : Streaming Video@L1
Format settings, BVOP            : Yes
Format settings, QPel            : No
Format settings, GMC             : No warppoints
Format settings, Matrix          : Default
Codec ID                         : XVID
Codec ID/Hint                    : XviD
Duration                         : 2h 53mn
Bit rate                         : 1 023 Kbps
Width                            : 640 pixels
Height                           : 368 pixels
Display aspect ratio             : 16/9
Frame rate                       : 25.000 fps
Resolution                       : 24 bits
Colorimetry                      : 4:2:0
Scan type                        : Progressive
Bits/(Pixel*Frame)               : 0.174
Stream size                      : 1.24 GiB (88%)
Writing library                  : XviD 1.1.2 (UTC 2006-11-01)

Audio
Format                           : MPEG Audio
Format version                   : Version 1
Format profile                   : Layer 3
Codec ID                         : 55
Codec ID/Hint                    : MP3
Duration                         : 2h 53mn
Bit rate mode                    : Constant
Bit rate                         : 128 Kbps
Channel(s)                       : 2 channels
Sampling rate                    : 44.1 KHz
Resolution                       : 16 bits
Stream size                      : 159 MiB (11%)
Alignment                        : Aligned on interleaves
Interleave, duration             : 26 ms (0.65 video frame)
Interleave, preload duration     : 809 ms

 
http://uptiki.com/images/hyj5lpgy0liqggahcvj.png
 
http://uptiki.com/images/jmbqq40v9798c9q7vve.png
 
http://uptiki.com/images/2017g8yxhdzqa6jh5pac.png
 
http://uptiki.com/images/r3ugiwk3h1yiyxdi751p.png
 
http://uptiki.com/images/0lpt17wtr53j18o219m.png
 
http://uptiki.com/images/cwbf9nx5e130t3eo6qmn.png
 
http://uptiki.com/images/pniewo1geihr9wpz1lqb.png
 
http://uptiki.com/images/fz4mk20zythajxq77i.png
 
http://uptiki.com/images/tag5v3qpkdo768c7wco.png
 
http://uptiki.com/images/ht5ynrha2nwohgsssn2.png